<?xml version="1.0" encoding="UTF-8"?>
<!DOCTYPE svg PUBLIC "-//W3C//DTD SVG 1.1//EN" "http://www.w3.org/Graphics/SVG/1.1/DTD/svg11.dtd">
<!-- Creator: CorelDRAW -->
<svg xmlns="http://www.w3.org/2000/svg" xml:space="preserve" width="2502.91mm" height="3420.78mm" version="1.1" style="shape-rendering:geometricPrecision; text-rendering:geometricPrecision; image-rendering:optimizeQuality; fill-rule:evenodd; clip-rule:evenodd"
viewBox="0 0 301.5537 412.1407"
 xmlns:xlink="http://www.w3.org/1999/xlink"
 xmlns:xodm="http://www.corel.com/coreldraw/odm/2003">
 <defs>
  <style type="text/css">
   <![CDATA[
    .fil2 {fill:#898989}
    .fil0 {fill:#2B2A29;fill-rule:nonzero}
    .fil1 {fill:#78B395;fill-rule:nonzero}
   ]]>
  </style>
 </defs>
 <g id="Слой_x0020_1">
  <metadata id="CorelCorpID_0Corel-Layer"/>
  <path class="fil0" d="M12.6655 410.7401l0.6102 -0.0832c0.0705,0.3467 0.1884,0.5963 0.3559,0.7488 0.1676,0.1525 0.3733,0.2288 0.6171,0.2288 0.2889,0 0.5327,-0.0994 0.7292,-0.2982 0.1965,-0.1988 0.2947,-0.4449 0.2947,-0.7384 0,-0.2797 -0.0913,-0.5108 -0.275,-0.6934 -0.1826,-0.1814 -0.4149,-0.2727 -0.698,-0.2727 -0.1156,0 -0.2589,0.0231 -0.431,0.0682l0.0682 -0.5339c0.0404,0.0046 0.074,0.0069 0.0982,0.0069 0.2612,0 0.4946,-0.0682 0.7038,-0.2034 0.208,-0.1352 0.312,-0.3432 0.312,-0.624 0,-0.223 -0.0763,-0.4079 -0.2277,-0.5547 -0.1514,-0.1468 -0.3467,-0.2196 -0.5859,-0.2196 -0.2381,0 -0.4357,0.0751 -0.594,0.2253 -0.1583,0.1502 -0.26,0.3756 -0.3051,0.676l-0.6102 -0.1109c0.0751,-0.4091 0.2438,-0.7269 0.5085,-0.9522 0.2635,-0.2253 0.5928,-0.3374 0.9857,-0.3374 0.2704,0 0.52,0.0578 0.7477,0.1745 0.2288,0.1156 0.4033,0.2739 0.5235,0.4738 0.1213,0.2011 0.1814,0.4137 0.1814,0.639 0,0.2138 -0.0578,0.4079 -0.1722,0.5836 -0.1156,0.1757 -0.2866,0.3155 -0.5119,0.4195 0.2935,0.067 0.5212,0.208 0.6841,0.4218 0.1618,0.2126 0.2427,0.4807 0.2427,0.8008 0,0.4334 -0.1583,0.802 -0.4738,1.1036 -0.3166,0.3016 -0.7165,0.4518 -1.1995,0.4518 -0.4357,0 -0.7974,-0.1306 -1.0851,-0.3906 -0.2889,-0.26 -0.453,-0.5963 -0.4934,-1.01z"/>
  <polygon class="fil0" points="74.2526,408.4589 77.1648,408.4589 77.1648,408.9651 76.0138,408.9651 76.0138,412.0575 75.4036,412.0575 75.4036,408.9651 74.2526,408.9651 "/>
  <polygon class="fil0" points="69.0304,408.4589 69.6406,408.4589 69.6406,411.5514 71.0273,411.5514 71.0273,408.4589 71.6375,408.4589 71.6375,411.5514 73.0242,411.5514 73.0242,408.4589 73.6344,408.4589 73.6344,412.0575 69.0304,412.0575 "/>
  <path class="fil0" d="M63.0952 407.7378l0 -0.5824 3.2103 0 0 0.4715c-0.3155,0.3363 -0.6298,0.7835 -0.9395,1.3417 -0.3109,0.5582 -0.5501,1.1325 -0.7199,1.723 -0.1213,0.4149 -0.1999,0.8713 -0.2334,1.3659l-0.624 0c0.0069,-0.3906 0.0832,-0.8632 0.23,-1.4168 0.1468,-0.5547 0.3559,-1.0886 0.6298,-1.6028 0.2739,-0.5142 0.5651,-0.9476 0.8736,-1.3001l-2.4268 0z"/>
  <path class="fil0" d="M61.4924 412.0575l-0.6102 0 0 -3.8852c-0.1468,0.141 -0.3397,0.2808 -0.5778,0.4206 -0.2381,0.1398 -0.453,0.245 -0.6425,0.3143l0 -0.5894c0.3409,-0.1595 0.639,-0.3536 0.8944,-0.5824 0.2554,-0.2277 0.4368,-0.4484 0.5431,-0.6633l0.3929 0 0 4.9853z"/>
  <polygon class="fil0" points="56.8191,410.5668 56.8191,409.9566 58.705,409.9566 58.705,410.5668 "/>
  <path class="fil0" d="M53.6631 409.6099c0,0.817 0.0948,1.3602 0.2854,1.6283 0.1907,0.2693 0.4264,0.4033 0.7061,0.4033 0.2797,0 0.5154,-0.1352 0.7061,-0.4045 0.1907,-0.2704 0.2854,-0.8124 0.2854,-1.6271 0,-0.817 -0.0948,-1.3602 -0.2854,-1.6283 -0.1895,-0.2693 -0.4276,-0.4033 -0.713,-0.4033 -0.2797,0 -0.5039,0.119 -0.6714,0.3559 -0.2092,0.3016 -0.3132,0.8609 -0.3132,1.6756zm-0.624 -0.0023c0,-0.5859 0.0601,-1.0597 0.1803,-1.4179 0.1213,-0.3594 0.3005,-0.6356 0.5385,-0.8286 0.2369,-0.193 0.5362,-0.2889 0.8968,-0.2889 0.2658,0 0.4992,0.0532 0.7015,0.1606 0.2011,0.1075 0.3675,0.2623 0.4969,0.4646 0.1294,0.2011 0.2311,0.4472 0.3051,0.7373 0.0751,0.2901 0.1121,0.6818 0.1121,1.1729 0,0.5824 -0.0601,1.0539 -0.1791,1.4122 -0.119,0.3594 -0.2981,0.6356 -0.5362,0.8297 -0.2369,0.1941 -0.5374,0.2912 -0.9002,0.2912 -0.4773,0 -0.8528,-0.1699 -1.1256,-0.5108 -0.327,-0.416 -0.49,-1.0897 -0.49,-2.0223z"/>
  <path class="fil0" d="M49.8068 409.6099c0,0.817 0.0948,1.3602 0.2854,1.6283 0.1907,0.2693 0.4264,0.4033 0.7061,0.4033 0.2797,0 0.5154,-0.1352 0.7061,-0.4045 0.1907,-0.2704 0.2854,-0.8124 0.2854,-1.6271 0,-0.817 -0.0948,-1.3602 -0.2854,-1.6283 -0.1895,-0.2693 -0.4276,-0.4033 -0.713,-0.4033 -0.2797,0 -0.5039,0.119 -0.6714,0.3559 -0.2092,0.3016 -0.3132,0.8609 -0.3132,1.6756zm-0.624 -0.0023c0,-0.5859 0.0601,-1.0597 0.1803,-1.4179 0.1213,-0.3594 0.3005,-0.6356 0.5385,-0.8286 0.2369,-0.193 0.5362,-0.2889 0.8968,-0.2889 0.2658,0 0.4992,0.0532 0.7015,0.1606 0.2011,0.1075 0.3675,0.2623 0.4969,0.4646 0.1294,0.2011 0.2311,0.4472 0.3051,0.7373 0.0751,0.2901 0.1121,0.6818 0.1121,1.1729 0,0.5824 -0.0601,1.0539 -0.1791,1.4122 -0.119,0.3594 -0.2981,0.6356 -0.5362,0.8297 -0.2369,0.1941 -0.5374,0.2912 -0.9002,0.2912 -0.4773,0 -0.8528,-0.1699 -1.1256,-0.5108 -0.327,-0.416 -0.49,-1.0897 -0.49,-2.0223z"/>
  <path class="fil0" d="M48.5229 411.4751l0 0.5824 -3.2866 0c-0.0046,-0.1468 0.0197,-0.2877 0.0717,-0.4241 0.0844,-0.223 0.2196,-0.4438 0.4056,-0.6599 0.186,-0.2161 0.4518,-0.4657 0.7974,-0.7488 0.5373,-0.4426 0.9025,-0.7927 1.0932,-1.0516 0.1918,-0.2589 0.2877,-0.5038 0.2877,-0.735 0,-0.2415 -0.0867,-0.4449 -0.26,-0.6113 -0.1733,-0.1653 -0.3998,-0.2485 -0.6783,-0.2485 -0.2947,0 -0.5304,0.0878 -0.7072,0.2635 -0.1768,0.1745 -0.2658,0.4172 -0.2681,0.728l-0.624 -0.0624c0.0428,-0.4669 0.2046,-0.8228 0.4842,-1.0678 0.2808,-0.245 0.6564,-0.3675 1.129,-0.3675 0.4761,0 0.854,0.1317 1.1313,0.3964 0.2785,0.2646 0.4172,0.5928 0.4172,0.9834 0,0.1988 -0.0404,0.3941 -0.1225,0.5859 -0.0809,0.193 -0.2161,0.3952 -0.4045,0.6079 -0.1895,0.2115 -0.5027,0.5039 -0.9395,0.8736 -0.3663,0.3074 -0.6021,0.5154 -0.7061,0.6252 -0.104,0.1098 -0.1895,0.2196 -0.2577,0.3305l2.4372 0z"/>
  <path class="fil0" d="M43.7584 412.0575l-0.6102 0 0 -3.8852c-0.1468,0.141 -0.3398,0.2808 -0.5778,0.4206 -0.2381,0.1398 -0.453,0.245 -0.6425,0.3143l0 -0.5894c0.3409,-0.1595 0.6391,-0.3536 0.8944,-0.5824 0.2554,-0.2277 0.4368,-0.4484 0.5431,-0.6633l0.3929 0 0 4.9853z"/>
  <path class="fil0" d="M37.7538 412.0575l1.3139 -1.864 -1.2169 -1.7346 0.75 0 0.5686 0.8494c0.1052,0.1595 0.1884,0.2889 0.2473,0.3906 0.1028,-0.1444 0.1941,-0.275 0.2762,-0.3917l0.5986 -0.8482 0.7454 0 -1.2238 1.7346 1.3035 1.864 -0.7419 0 -0.7442 -1.1094 -0.1699 -0.2669 -0.9615 1.3763 -0.7454 0z"/>
  <path class="fil0" d="M34.7712 409.6099c0,0.817 0.0948,1.3602 0.2854,1.6283 0.1907,0.2693 0.4264,0.4033 0.7061,0.4033 0.2797,0 0.5154,-0.1352 0.7061,-0.4045 0.1907,-0.2704 0.2854,-0.8124 0.2854,-1.6271 0,-0.817 -0.0948,-1.3602 -0.2854,-1.6283 -0.1895,-0.2693 -0.4276,-0.4033 -0.713,-0.4033 -0.2797,0 -0.5039,0.119 -0.6714,0.3559 -0.2092,0.3016 -0.3132,0.8609 -0.3132,1.6756zm-0.624 -0.0023c0,-0.5859 0.0601,-1.0597 0.1803,-1.4179 0.1213,-0.3594 0.3005,-0.6356 0.5385,-0.8286 0.2369,-0.193 0.5362,-0.2889 0.8968,-0.2889 0.2658,0 0.4992,0.0532 0.7015,0.1606 0.2011,0.1075 0.3675,0.2623 0.4969,0.4646 0.1294,0.2011 0.2311,0.4472 0.3051,0.7373 0.0751,0.2901 0.1121,0.6818 0.1121,1.1729 0,0.5824 -0.0601,1.0539 -0.1791,1.4122 -0.119,0.3594 -0.2981,0.6356 -0.5362,0.8297 -0.2369,0.1941 -0.5374,0.2912 -0.9002,0.2912 -0.4773,0 -0.8528,-0.1699 -1.1256,-0.5108 -0.327,-0.416 -0.49,-1.0897 -0.49,-2.0223z"/>
  <path class="fil0" d="M32.8702 408.7167c0,-0.349 -0.0924,-0.6263 -0.2773,-0.8309 -0.1837,-0.2045 -0.4079,-0.3074 -0.6714,-0.3074 -0.2727,0 -0.5085,0.1098 -0.7072,0.3305 -0.1999,0.2207 -0.2993,0.5073 -0.2993,0.8586 0,0.3155 0.0948,0.572 0.2831,0.7685 0.1895,0.1976 0.4253,0.2958 0.7061,0.2958 0.282,0 0.5131,-0.0982 0.6945,-0.2958 0.1814,-0.1965 0.2716,-0.4703 0.2716,-0.8193zm-2.4892 2.1899l0.5824 -0.0485c0.0497,0.275 0.1444,0.4738 0.2843,0.5975 0.1398,0.1237 0.319,0.186 0.5385,0.186 0.1872,0 0.3513,-0.0428 0.4934,-0.1294 0.1421,-0.0855 0.2577,-0.1999 0.3467,-0.3444 0.089,-0.1433 0.1641,-0.3374 0.2253,-0.5813 0.0612,-0.2438 0.0913,-0.4923 0.0913,-0.7454 0,-0.0266 -0.0012,-0.0682 -0.0035,-0.1225 -0.1213,0.1941 -0.2877,0.3525 -0.4981,0.4726 -0.2103,0.1213 -0.4391,0.1814 -0.6841,0.1814 -0.4102,0 -0.7569,-0.1491 -1.0412,-0.4472 -0.2831,-0.297 -0.4253,-0.6899 -0.4253,-1.1776 0,-0.5038 0.1479,-0.9083 0.4449,-1.2157 0.2958,-0.3062 0.6668,-0.4599 1.114,-0.4599 0.3213,0 0.6159,0.0867 0.884,0.2612 0.267,0.1733 0.4692,0.4206 0.6079,0.7431 0.1387,0.3213 0.208,0.787 0.208,1.396 0,0.6344 -0.0682,1.1394 -0.2057,1.515 -0.1375,0.3767 -0.3432,0.6622 -0.6148,0.8586 -0.2716,0.1965 -0.5894,0.2947 -0.9545,0.2947 -0.3883,0 -0.7049,-0.1075 -0.9511,-0.3236 -0.245,-0.2161 -0.3929,-0.52 -0.4426,-0.9106z"/>
  <polygon class="fil0" points="27.9057,410.5668 27.9057,409.9566 29.7916,409.9566 29.7916,410.5668 "/>
  <polygon class="fil0" points="23.4023,408.4589 24.3406,408.4589 25.2917,411.3387 26.3445,408.4589 27.2158,408.4589 27.2158,412.0575 26.6056,412.0575 26.6056,409.1604 25.5459,412.0575 25.0005,412.0575 23.9986,409.0217 23.9986,412.0575 23.4023,412.0575 "/>
  <polygon class="fil0" points="18.6354,408.4589 19.5737,408.4589 20.5248,411.3387 21.5776,408.4589 22.4489,408.4589 22.4489,412.0575 21.8387,412.0575 21.8387,409.1604 20.779,412.0575 20.2336,412.0575 19.2317,409.0217 19.2317,412.0575 18.6354,412.0575 "/>
  <path class="fil0" d="M7.0226 412.0575l1.3139 -1.864 -1.2169 -1.7346 0.75 0 0.5686 0.8494c0.1052,0.1595 0.1884,0.2889 0.2473,0.3906 0.1029,-0.1444 0.1941,-0.275 0.2762,-0.3917l0.5986 -0.8482 0.7454 0 -1.2238 1.7346 1.3035 1.864 -0.7419 0 -0.7442 -1.1094 -0.1699 -0.2669 -0.9615 1.3763 -0.7454 0z"/>
  <path class="fil0" d="M4.3647 411.5583l0.8008 0c0.3444,0 0.5813,-0.0404 0.7095,-0.1202 0.1283,-0.0809 0.1953,-0.2184 0.2022,-0.416 0,-0.1144 -0.037,-0.2219 -0.1109,-0.3201 -0.0751,-0.0982 -0.1722,-0.1606 -0.2912,-0.186 -0.119,-0.0266 -0.3109,-0.0393 -0.5743,-0.0393l-0.7361 0 0 1.0816zm0 -1.5809l0.6471 0c0.2577,0 0.4357,-0.0139 0.5316,-0.0404 0.0971,-0.0277 0.1837,-0.082 0.26,-0.1653 0.0763,-0.082 0.1144,-0.1814 0.1144,-0.297 0,-0.1907 -0.067,-0.3224 -0.1999,-0.3975 -0.1341,-0.0751 -0.3629,-0.1121 -0.6864,-0.1121l-0.6668 0 0 1.0123zm-0.6102 -1.5185l1.4041 0c0.3444,0 0.6009,0.0289 0.7696,0.0867 0.1676,0.0578 0.312,0.1629 0.4322,0.3166 0.1213,0.1549 0.1814,0.3386 0.1814,0.5535 0,0.1722 -0.0358,0.3224 -0.1063,0.4495 -0.0717,0.1283 -0.178,0.2357 -0.3213,0.3213 0.1687,0.0566 0.3085,0.1618 0.4206,0.3166 0.1109,0.1537 0.1664,0.3374 0.1664,0.5489 -0.022,0.3409 -0.1444,0.594 -0.3652,0.7581 -0.2207,0.1653 -0.542,0.2473 -0.9626,0.2473l-1.619 0 0 -3.5986z"/>
  <polygon class="fil0" points="-0,408.4589 2.8428,408.4589 2.8428,412.0575 2.2326,412.0575 2.2326,408.9651 0.6102,408.9651 0.6102,412.0575 -0,412.0575 "/>
 </g>
 <g id="Deepnest_x0020_Result_x0020_092104">
  <metadata id="CorelCorpID_1Corel-Layer"/>
  <g id="_2592887934272">
   <path class="fil1" d="M268.1191 6.4509l-16.1017 27.567c-2.2615,3.8983 0.4523,8.9105 4.8848,8.9105l32.2939 0c4.4325,0 7.1462,-5.0122 4.8847,-8.9105l-16.1016 -27.567c-2.2615,-3.8056 -7.5985,-3.8056 -9.86,0zm15.9208 -1.2995l16.0112 27.567c4.1611,7.1469 -0.8141,16.1503 -8.865,16.1503l-32.2033 0c-8.0509,0 -13.0261,-9.0034 -8.865,-16.1503l16.1017 -27.567c3.9801,-6.8685 13.7498,-6.8685 17.8204,0z"/>
   <path class="fil2" d="M283.7286 5.335c-3.9132,-6.6017 -13.3151,-6.6473 -17.197,-0.0013l-16.1017 27.567c-1.8852,3.2276 -1.9496,7.1205 -0.1462,10.3965 1.7711,3.2173 5.0086,5.2101 8.6991,5.2101l32.2033 0c3.6949,0 6.9263,-1.995 8.6925,-5.2062 1.802,-3.2763 1.7365,-7.1704 -0.14,-10.4012l-16.01 -27.5649zm-15.9215 0.9336c2.3719,-4.0608 8.1124,-4.0608 10.4842,0l16.1016 27.567c1.1349,1.943 1.1541,4.2992 0.0773,6.2702 -1.0665,1.9522 -3.0273,3.1841 -5.2741,3.1841l-32.2939 0c-2.2468,0 -4.2076,-1.2319 -5.2742,-3.1841 -1.0768,-1.971 -1.0576,-4.3272 0.0773,-6.2702l16.1017 -27.567z"/>
  </g>
  <g id="_2592887934944">
   <path class="fil1" d="M267.5778 16.569l-6.9653 11.9735c-0.6333,1.1138 0.0904,2.5061 1.3569,2.5061l13.9306 0c1.2665,0 1.9901,-1.3923 1.357,-2.5061l-6.9654 -11.9735c-0.6332,-1.1138 -2.171,-1.1138 -2.7138,0zm6.9653 -4.3625l10.6742 18.2851c1.6283,2.7846 -0.3618,6.4045 -3.5279,6.4045l-21.4387 0c-3.1661,0 -5.1562,-3.6199 -3.528,-6.4045l10.7646 -18.2851c1.5378,-2.7845 5.4276,-2.7845 7.0558,0z"/>
   <path class="fil2" d="M274.231 12.3887c-1.464,-2.5078 -5.0055,-2.5819 -6.4273,-0.0075l-0.0024 0.0043 -10.7671 18.2894c-0.7103,1.2065 -0.7044,2.6663 -0.0319,3.8868 0.6606,1.1989 1.8616,1.9728 3.2484,1.9728l21.4387 0c1.3859,0 2.5847,-0.7717 3.2444,-1.9704 0.672,-1.2211 0.6769,-2.6818 -0.0287,-3.8904l-10.6742 -18.2851zm-6.972 4.0094c0.6918,-1.3962 2.5924,-1.3348 3.3459,-0.0094l6.9663 11.9751c0.3553,0.6251 0.3783,1.3829 0.0385,2.0196 -0.3414,0.6396 -0.9811,1.0266 -1.7097,1.0266l-13.9306 0c-0.7286,0 -1.3683,-0.387 -1.7097,-1.0267 -0.3398,-0.6367 -0.3168,-1.3945 0.0386,-2.0196l6.9607 -11.9657z"/>
  </g>
 </g>
</svg>
